<?xml version="1.0" encoding="iso-8859-1"?>
<!-- Uploaded to: SVG Repo, www.svgrepo.com, Generator: SVG Repo Mixer Tools -->
<!DOCTYPE svg PUBLIC "-//W3C//DTD SVG 1.1//EN" "http://www.w3.org/Graphics/SVG/1.1/DTD/svg11.dtd">
<svg fill="#000000" height="800px" width="800px" version="1.1" id="Capa_1" xmlns="http://www.w3.org/2000/svg" xmlns:xlink="http://www.w3.org/1999/xlink" 
	 viewBox="0 0 449.893 449.893" xml:space="preserve">
<g>
	<path d="M281.537,225.631l-6.964,118.437c-0.243,4.135,2.912,7.685,7.047,7.928c0.15,0.009,0.299,0.013,0.447,0.013
		c3.941,0,7.246-3.075,7.48-7.06l6.965-118.437c0.243-4.135-2.912-7.685-7.047-7.928
		C285.341,218.347,281.781,221.496,281.537,225.631z"/>
	<path d="M134.982,20.499c0.214,0,0.43-0.009,0.648-0.028l33.065-2.83l0.511,5.977l-33.065,2.83
		c-4.127,0.353-7.186,3.985-6.833,8.112c0.334,3.91,3.611,6.861,7.464,6.861c0.214,0,0.43-0.009,0.648-0.028l33.065-2.83
		l0.511,5.977l-33.065,2.83c-4.127,0.353-7.186,3.985-6.833,8.112c0.334,3.91,3.611,6.861,7.464,6.861
		c0.214,0,0.43-0.009,0.648-0.028l33.065-2.83l0.511,5.977l-33.065,2.83c-4.127,0.353-7.186,3.985-6.833,8.112
		c0.334,3.91,3.611,6.861,7.464,6.861c0.214,0,0.43-0.009,0.648-0.028l33.065-2.83l0.511,5.977l-33.065,2.83
		c-4.127,0.353-7.186,3.985-6.833,8.112c0.334,3.91,3.611,6.861,7.464,6.861c0.214,0,0.43-0.009,0.648-0.028l33.065-2.83
		l0.512,5.977l-33.065,2.83c-4.127,0.353-7.186,3.985-6.833,8.112c0.334,3.91,3.611,6.861,7.464,6.861
		c0.214,0,0.43-0.009,0.648-0.028l33.065-2.829l5.672,66.288h-16.403c-2.065,0-4.04,0.852-5.457,2.354
		c-1.417,1.503-2.152,3.524-2.031,5.586l7.96,135.359c0.243,4.135,3.787,7.291,7.927,7.047c4.135-0.243,7.29-3.792,7.047-7.928
		l-7.493-127.418h134.084l-9.647,164.074c-0.243,4.135,2.912,7.685,7.046,7.928c0.15,0.009,0.299,0.013,0.447,0.013
		c3.941,0,7.246-3.075,7.48-7.06l10.115-172.014c0.121-2.062-0.613-4.083-2.031-5.586c-1.417-1.502-3.391-2.354-5.457-2.354h-6.782
		l3.545-41.439l33.063,2.829c0.218,0.019,0.434,0.028,0.648,0.028c3.853,0,7.13-2.952,7.464-6.861
		c0.353-4.127-2.706-7.759-6.833-8.112l-33.064-2.829l0.511-5.977l33.063,2.829c0.218,0.019,0.434,0.028,0.648,0.028
		c3.853,0,7.13-2.952,7.464-6.861c0.353-4.127-2.706-7.759-6.833-8.112l-33.064-2.829l0.511-5.977l33.064,2.829
		c0.218,0.019,0.434,0.028,0.648,0.028c3.853,0,7.13-2.952,7.464-6.861c0.353-4.127-2.706-7.759-6.833-8.112l-33.064-2.83
		l0.511-5.977l33.064,2.829c0.218,0.019,0.434,0.028,0.648,0.028c3.853,0,7.13-2.952,7.464-6.861
		c0.353-4.127-2.706-7.759-6.833-8.112l-33.065-2.83l0.511-5.977l33.065,2.83c0.218,0.019,0.434,0.028,0.648,0.028
		c3.853,0,7.13-2.952,7.464-6.861c0.353-4.127-2.706-7.759-6.833-8.112l-33.065-2.83l0.511-5.977l33.065,2.83
		c0.218,0.019,0.434,0.028,0.648,0.028c3.853,0,7.13-2.952,7.464-6.861c0.353-4.127-2.706-7.759-6.833-8.112l-64.258-5.497
		c-4.127-0.349-7.759,2.706-8.112,6.833l-13.423,156.832h-48.899L206.721,6.861c-0.353-4.127-3.986-7.189-8.112-6.833l-64.258,5.498
		c-4.127,0.353-7.186,3.985-6.833,8.112C127.852,17.547,131.129,20.499,134.982,20.499z M298.902,40.463l8.774,0.751
		l-12.604,147.329h-8.845L298.902,40.463z M192.415,15.613l14.804,172.929h-8.845L183.641,16.364L192.415,15.613z"/>
	<path d="M389.27,405.054l-266.087-72.097c-2.083-0.565-4.31-0.203-6.109,0.99c-1.799,1.194-2.996,3.105-3.285,5.245l-2.721,20.136
		l-52.581-7.106c-4.104-0.552-7.882,2.324-8.437,6.428l-6.208,45.939c-0.266,1.971,0.261,3.967,1.467,5.55
		c1.206,1.582,2.99,2.621,4.961,2.887l52.581,7.106l-2.721,20.136c-0.289,2.14,0.358,4.3,1.775,5.928s3.468,2.567,5.627,2.576
		l275.68,1.121c0.031,0,0.062,0,0.093,0c11.374,0,21.086-8.48,22.611-19.761C407.443,418.819,400.287,408.038,389.27,405.054z
		 M59.71,399.165l4.2-31.074l45.149,6.102l-4.2,31.074L59.71,399.165z M391.05,428.123c-0.522,3.865-3.85,6.771-7.746,6.771
		c-0.011,0-0.021,0-0.032,0l-267.133-1.086l11.371-84.137l257.839,69.862C389.122,420.554,391.574,424.248,391.05,428.123z"/>
</g>
</svg>